<svg height="103" viewBox="0 0 103 103" width="103" xmlns="http://www.w3.org/2000/svg"><g fill="none" fill-rule="evenodd"><path d="m51.5.9c-28 0-50.7 22.6-50.7 50.6 0 14 5.7 26.6 14.9 35.8l71.6-71.6c-9.2-9.2-21.8-14.8-35.8-14.8z" fill="#616161"/><path d="m87.3 15.6-71.6 71.6c9.2 9.1 21.8 14.8 35.8 14.8 28 0 50.7-22.6 50.7-50.6 0-14-5.7-26.6-14.9-35.8z" fill="#525252"/><path d="m41.9 44.1s.2 2.6-1.2 4.5c-1.3 1.9-13.7 21.2-13.7 21.2l1 1.3 13.9-21.7s1.8-3.8 1.7-5.4c-.2-1.4-1.7.1-1.7.1z" fill="#aeaeae"/><path d="m32.3 29.7s-2.9-.2-5 1.3-23.7 15.8-23.7 15.8l-1.4-1.2 24.1-16s4.2-2.1 6-1.9c1.7.2 0 2 0 2z" fill="#d9d8d7"/><path d="m40.1 34.2s-2.4-.2-4.1 1.3-19.2 14.9-19.2 14.9l-1.1-1.1 19.6-15.1s3.4-2 4.9-1.8c1.3.2-.1 1.8-.1 1.8z" fill="#c1c0c0"/><g transform="translate(18 18)"><path d="m31.2 7.7c-1.3-2.1-3.2-3.8-5.3-5.2 1.6 2.5 2.5 5.5 2.5 8.6 0 9.3-7.5 16.8-16.8 16.8-3.2 0-6.2-1-8.7-2.5 1.3 2.1 3.1 4 5.2 5.4 2.5 1.6 5.6 2.6 8.9 2.6 9.3 0 16.8-7.5 16.8-16.8 0-3.2-.9-6.3-2.6-8.9z" fill="#aeaeae"/><path d="m28.3 11.2c0-3.2-.9-6.1-2.5-8.6-2.5-1.6-5.5-2.6-8.8-2.6-9.3 0-16.8 7.5-16.8 16.7 0 3.3 1 6.2 2.6 8.8 2.5 1.5 5.5 2.5 8.7 2.5 9.3-.1 16.8-7.6 16.8-16.8z" fill="#d9d8d7"/></g><path d="m85.7 82s2.1-1.6 3.9-3.5c1.9-1.9 2.7-5.3 4-4.6 1.2.7.2 4-.9 4.7-1.2.7-6.3 4.9-7.7 4.9-1.4.1.7-1.5.7-1.5z" fill="#9bcf81"/><g fill="#fff"><circle cx="91.2" cy="43.4" r="1.5"/><circle cx="79.9" cy="22.8" r="1.5"/><circle cx="66.5" cy="17.3" r=".7"/><circle cx="20.8" cy="74.5" r=".7"/></g><g transform="translate(26 51)"><path d="m38.2 28.1c.4-1.3 6.1-5.2 9.5-11.5s-8.9-4.4-11-6.1c-2.1-1.8 3-3 4.2-5.3 1-1.9 4.8-3.7 6.2-4.3-18.8 1.4-34.6 12.8-42.1 29.1h.1s.5-.9 1.3 1.6c.8 2.6 2.8 4 3.6 3.5.8-.6 1.3 4.6 1 5.1-.2.2-.4.9-.9 1.5 2.4.4 4.9.6 7.5.6 8.1 0 15.6-2.1 22.4-5.4-.5-.6-1-1.2-1.7-2-1.7-1.9-.5-5.5-.1-6.8z" fill="#21bdc2"/><path d="m68.2 3.7c2.5 1.3 2.3 3 3.4 3.2 1.4.4 1.6 5.1-1.1 5.8-2.6.7-5.6 3.9-5.4 8.1s-2.6 6-4.7 7.3-4.4 1.6-6.3 1.8-5.8 3.7-6.4 4.9-2.7 3.9-2.7 3.9-3.9.5-3.9 0c0-.3-.5-1-1.2-1.9-6.8 3.4-14.3 5.4-22.4 5.4-2.5 0-5-.2-7.5-.6-.4.5-1 .8-2.2.8s-2.4-1-3.5-2c-.9-.2-1.7-.6-2.6-.9-.4 1.6-.9 3.2-1.1 4.9 7.4 4.2 15.9 6.6 25 6.6 25.7 0 46.9-19.2 50.2-43.9-2.4-1.4-5-2.5-7.6-3.4z" fill="#35a39d"/><path d="m2.1 37.9c-.1.5-.2 1.1-.4 1.6.9.3 1.7.6 2.6.9-1.1-1.1-1.9-2.2-2.2-2.5z" fill="#21bdc2"/><path d="m39.9 36.8c.7.9 1.2 1.6 1.2 1.9 0 .5 3.9 0 3.9 0s2.1-2.6 2.7-3.9c.6-1.2 4.5-4.7 6.4-4.9s4.2-.5 6.3-1.8 4.9-3.1 4.7-7.3 2.8-7.4 5.4-8.1 2.5-5.4 1.1-5.8c-1.1-.3-1-1.9-3.4-3.2-.5-.2-1.1-.4-1.6-.5-3.4 14.7-13.3 26.9-26.7 33.6z" fill="#70b376"/><path d="m66.6 3.1c-4.1-1.3-8.4-2.2-12.9-2.4-1.2 0-2.6-.1-4.2-.1-.8 0-1.6.2-2.4.2-1.4.6-5.2 2.5-6.2 4.3-1.2 2.3-6.4 3.5-4.2 5.3 2.1 1.8 14.4-.2 11 6.1s-9 10.2-9.5 11.5c-.4 1.3-1.7 5 0 6.7.7.7 1.2 1.4 1.7 2 13.4-6.6 23.3-18.8 26.7-33.6z" fill="#82c783"/><path d="m7.9 42.4c1.2 0 1.8-.4 2.2-.8-1.9-.3-3.8-.6-5.7-1.1 1 1 2.3 1.9 3.5 1.9z" fill="#70b376"/><path d="m11 40c.4-.4-.2-5.6-1-5.1-.8.6-2.7-.9-3.6-3.5-.8-2.6-1.3-1.6-1.3-1.6s0 0-.1 0c-1.2 2.6-2.2 5.2-2.9 8 .2.3 1.1 1.4 2.2 2.5 1.9.5 3.8.9 5.7 1.1.6-.4.8-1.1 1-1.4z" fill="#82c783"/></g><path d="m20.6 23.9s-1.1 14 7.7 20.3 21.6 3 21.6 3" stroke="#5c5c5c" stroke-width=".5"/><path d="m25.6 19.1s-.3 14 8.8 19.8 21.8 1.9 21.8 1.9" stroke="#5c5c5c" stroke-width=".5"/><path d="m83.2 83.6s2.3-1.1 4.5-2.6 3.8-4.6 4.8-3.7c1.1.9-.6 4-1.9 4.5s-7.1 3.5-8.5 3.3 1.1-1.5 1.1-1.5z" fill="#70b376"/><path d="m34.8 35.8s0 3.1-1.8 5.2c-1.8 2-18.2 23.6-18.2 23.6l1.1 1.5 18.4-24.1s2.5-4.3 2.4-6.1c0-1.8-1.9-.1-1.9-.1z" fill="#aeaeae"/><path d="m34.9 33.7s0 3.1-1.8 5.2-18.9 25-18.9 25l1.1 1.5 19.1-25.5s2.5-4.3 2.4-6.1c0-1.8-1.9-.1-1.9-.1z" fill="#d9d8d7"/></g></svg>