<svg xmlns="http://www.w3.org/2000/svg" xmlns:svg="http://www.w3.org/2000/svg" xmlns:xlink="http://www.w3.org/1999/xlink" id="svg5999" width="635.907" height="586.013" version="1.1"><metadata id="metadata6004"/><g id="layer1" transform="translate(-8.7949474,-190.3852)"><g style="display:inline" id="g12762-8-2" transform="matrix(0.32565975,0,0,0.32565975,563.04167,-1466.6478)"><path style="fill:#fff;fill-opacity:1;stroke:#ccc;stroke-width:48.12016296;stroke-linejoin:round;stroke-miterlimit:4;stroke-opacity:1;stroke-dasharray:none;stroke-dashoffset:0" id="path4254-3-8-5-8-3-9-7-7-6" d="m -917.63713,738.2251 c 0,88.11481 -71.43117,159.54597 -159.54597,159.54597 -88.1148,0 -159.546,-71.43116 -159.546,-159.54597 0,-88.11481 71.4312,-159.54598 159.546,-159.54598 88.1148,0 159.54597,71.43117 159.54597,159.54598 z" transform="matrix(0.12813475,0,0,-0.12813475,-341.36813,5366.318)"/><rect style="fill:#000;fill-opacity:1;stroke:#0d5cab;stroke-width:.88346505;stroke-linejoin:round;stroke-miterlimit:4;stroke-opacity:1;stroke-dasharray:none;stroke-dashoffset:0" id="rect4554-3-0-8-6-87-2-3-2" width="26.468" height="25.683" x="-492.713" y="-5284.571" ry="12.841" transform="scale(1,-1)"/><text style="font-size:21.90477562px;font-style:normal;font-weight:400;line-height:125%;letter-spacing:0;word-spacing:0;fill:#000;fill-opacity:1;stroke:none;font-family:Sans" id="text3410-4-1-4-9-3-9" x="-445.343" y="5277.641" xml:space="preserve"><tspan id="tspan3412-6-1-8-6-2-0" x="-445.343" y="5277.641">Applied Expertise Required</tspan></text><path style="fill:#fff;fill-opacity:1;stroke:#000;stroke-width:48.12016296;stroke-linejoin:round;stroke-miterlimit:4;stroke-opacity:1;stroke-dasharray:none;stroke-dashoffset:0" id="path4254-3-8-5-8-3-9-7-2-6-2" d="m -917.63713,738.2251 c 0,88.11481 -71.43117,159.54597 -159.54597,159.54597 -88.1148,0 -159.546,-71.43116 -159.546,-159.54597 0,-88.11481 71.4312,-159.54598 159.546,-159.54598 88.1148,0 159.54597,71.43117 159.54597,159.54598 z" transform="matrix(0.12813475,0,0,-0.12813475,-341.36813,5432.0324)"/><rect style="fill:#ccc;fill-opacity:1;stroke:none" id="rect4554-3-0-8-6-87-2-2-6-6" width="26.468" height="25.683" x="-492.713" y="-5350.286" ry="12.841" transform="scale(1,-1)"/><text style="font-size:21.90477562px;font-style:normal;font-weight:400;line-height:125%;letter-spacing:0;word-spacing:0;fill:#000;fill-opacity:1;stroke:none;font-family:Sans" id="text3410-4-1-4-9-5-0-6" x="-445.343" y="5343.355" xml:space="preserve"><tspan id="tspan3412-6-1-8-6-4-2-7" x="-445.343" y="5343.355">Topical Knowledge Required</tspan></text><path style="fill:#1762af;fill-opacity:1;stroke:#1762af;stroke-width:48.12016296;stroke-linejoin:round;stroke-miterlimit:4;stroke-opacity:1;stroke-dasharray:none;stroke-dashoffset:0" id="path4254-3-8-5-8-3-9-7-2-5-8-0" d="m -917.63713,738.2251 c 0,88.11481 -71.43117,159.54597 -159.54597,159.54597 -88.1148,0 -159.546,-71.43116 -159.546,-159.54597 0,-88.11481 71.4312,-159.54598 159.546,-159.54598 88.1148,0 159.54597,71.43117 159.54597,159.54598 z" transform="matrix(0.12813475,0,0,-0.12813475,143.06096,5323.0706)"/><text style="font-size:21.90477562px;font-style:normal;font-weight:400;line-height:125%;letter-spacing:0;word-spacing:0;fill:#000;fill-opacity:1;stroke:none;font-family:Sans" id="text3410-4-1-4-9-5-4-5-6" x="39.086" y="5234.394" xml:space="preserve"><tspan id="tspan3412-6-1-8-6-4-7-74-4" x="39.086" y="5234.394">Technical</tspan></text><path style="fill:#70b541;fill-opacity:.98039216;stroke:#70b541;stroke-width:48.12016296;stroke-linejoin:round;stroke-miterlimit:4;stroke-opacity:.98039216;stroke-dasharray:none;stroke-dashoffset:0" id="path4254-3-8-5-8-3-9-7-2-5-3-2-1" d="m -917.63713,738.2251 c 0,88.11481 -71.43117,159.54597 -159.54597,159.54597 -88.1148,0 -159.546,-71.43116 -159.546,-159.54597 0,-88.11481 71.4312,-159.54598 159.546,-159.54598 88.1148,0 159.54597,71.43117 159.54597,159.54598 z" transform="matrix(0.12813475,0,0,-0.12813475,143.06096,5388.785)"/><text style="font-size:21.90477562px;font-style:normal;font-weight:400;line-height:125%;letter-spacing:0;word-spacing:0;fill:#000;fill-opacity:1;stroke:none;font-family:Sans" id="text3410-4-1-4-9-5-4-9-6-0" x="39.086" y="5300.108" xml:space="preserve"><tspan id="tspan3412-6-1-8-6-4-7-7-93-7" x="39.086" y="5300.108">Security</tspan></text><path style="fill:#f15f26;fill-opacity:1;stroke:#f15f26;stroke-width:48.12016296;stroke-linejoin:round;stroke-miterlimit:4;stroke-opacity:1;stroke-dasharray:none;stroke-dashoffset:0" id="path4254-3-8-5-8-3-9-7-2-5-3-0-8-6" d="m -917.63713,738.2251 c 0,88.11481 -71.43117,159.54597 -159.54597,159.54597 -88.1148,0 -159.546,-71.43116 -159.546,-159.54597 0,-88.11481 71.4312,-159.54598 159.546,-159.54598 88.1148,0 159.54597,71.43117 159.54597,159.54598 z" transform="matrix(0.12813475,0,0,-0.12813475,143.06096,5454.4993)"/><text style="font-size:21.90477562px;font-style:normal;font-weight:400;line-height:125%;letter-spacing:0;word-spacing:0;fill:#000;fill-opacity:1;stroke:none;font-family:Sans" id="text3410-4-1-4-9-5-4-9-3-7-3" x="39.086" y="5365.822" xml:space="preserve"><tspan id="tspan3412-6-1-8-6-4-7-7-9-1-5" x="39.086" y="5365.822">Facilitation</tspan></text><path style="fill:none;stroke:#000;stroke-width:1px;stroke-linecap:butt;stroke-linejoin:miter;stroke-opacity:1" id="path12758-8-8" d="m -551.283,5183.3572 801.53644,2e-4 0,248.4401 -801.53644,0 z"/><rect style="fill:#fff;fill-opacity:1;stroke:none" id="rect12760-3-1" width="112.433" height="79.791" x="-602.246" y="5140.902" ry="23.45"/><text style="font-size:45.28767776px;font-style:normal;font-weight:400;line-height:125%;letter-spacing:0;word-spacing:0;fill:#000;fill-opacity:1;stroke:none;font-family:Sans" id="text11020-4-2-5" x="-582.798" y="5197.333" xml:space="preserve"><tspan id="tspan11022-9-5-8" x="-582.798" y="5197.333">Key</tspan></text></g><rect style="color:#000;fill:none;stroke:#ccc;stroke-width:7.17941523;stroke-linecap:round;stroke-linejoin:round;stroke-miterlimit:4;stroke-opacity:1;stroke-dasharray:none;stroke-dashoffset:0;marker:none;visibility:visible;display:inline;overflow:visible;enable-background:accumulate" id="rect289295-6" width="309.87" height="525.758" x="40.424" y="222.32" ry="17.509"/><text id="text3410-2-5-7-4-7" x="126.856" y="776.144" xml:space="preserve" style="font-size:17.95151901px;font-style:normal;font-weight:400;line-height:125%;letter-spacing:0;word-spacing:0;fill:#000;fill-opacity:1;stroke:none;display:inline;font-family:Sans"><tspan id="tspan3412-9-8-2-3-7" x="126.856" y="776.144">On Site Audit</tspan></text><path style="color:#000;fill:#fff;fill-opacity:1;fill-rule:nonzero;stroke:#ccc;stroke-width:5;stroke-linecap:butt;stroke-linejoin:round;stroke-miterlimit:4;stroke-opacity:1;stroke-dasharray:none;stroke-dashoffset:0;marker:none;visibility:visible;display:inline;overflow:visible;enable-background:accumulate" id="path289385-1-7-4" d="m 277.90528,236.29301 c 0,11.15428 -9.04232,20.19661 -20.1966,20.19661 -11.15428,0 -20.1966,-9.04233 -20.1966,-20.19661 0,-11.15427 9.04232,-20.1966 20.1966,-20.1966 11.15428,0 20.1966,9.04233 20.1966,20.1966 z" transform="matrix(1.4358831,0,0,1.4358831,-328.65492,-116.31428)"/><text style="font-size:39.44666672px;font-style:normal;font-variant:normal;font-weight:400;font-stretch:normal;line-height:125%;letter-spacing:0;word-spacing:0;fill:gray;fill-opacity:1;stroke:none;font-family:Sans;-inkscape-font-specification:Sans" id="text289387-9-2-4" x="28.938" y="236.755" xml:space="preserve"><tspan id="tspan289389-0-6-8" x="28.938" y="236.755">3</tspan></text><path id="path6927-3-9-6-2-6-4-33-2" d="m 238.44236,452.86785 0,65.90568" style="fill:none;stroke:#0d5cab;stroke-width:3.14151597;stroke-linecap:round;stroke-linejoin:miter;stroke-miterlimit:4;stroke-opacity:1;stroke-dasharray:none;stroke-dashoffset:0;display:inline"/><path id="path6927-3-9-6-2-6-73-2" d="m 243.34797,452.86785 0,65.90568" style="fill:none;stroke:#79b84c;stroke-width:3.14151597;stroke-linecap:round;stroke-linejoin:miter;stroke-miterlimit:4;stroke-opacity:1;stroke-dasharray:none;stroke-dashoffset:0;display:inline"/><path id="path6927-8-80-9-8-7-9" d="m 156.37173,544.57015 0,-57.75633 40.57227,0 0,-43.05819 39.71,0" style="fill:none;stroke:#0d5cab;stroke-width:3.14151597;stroke-linecap:round;stroke-linejoin:miter;stroke-miterlimit:4;stroke-opacity:1;stroke-dasharray:none;stroke-dashoffset:0;display:inline"/><path id="path6927-8-3-7-6-1-5-42-8-4-3-1" d="m 151.7478,458.22681 0,68.37166" style="fill:none;stroke:#0d5cab;stroke-width:3.14151597;stroke-linecap:round;stroke-linejoin:miter;stroke-miterlimit:4;stroke-opacity:1;stroke-dasharray:none;stroke-dashoffset:0;display:inline"/><path id="path6927-3-9-6-2-6-4-3-5-1" d="m 190.09665,627.19845 0,65.90574" style="fill:none;stroke:#f15c22;stroke-width:3.14151597;stroke-linecap:round;stroke-linejoin:miter;stroke-miterlimit:4;stroke-opacity:1;stroke-dasharray:none;stroke-dashoffset:0;display:inline"/><path id="path6927-3-9-6-2-6-7-3-2" d="m 195.00212,627.19845 0,65.90574" style="fill:none;stroke:#79b84c;stroke-width:3.14151597;stroke-linecap:round;stroke-linejoin:miter;stroke-miterlimit:4;stroke-opacity:1;stroke-dasharray:none;stroke-dashoffset:0;display:inline"/><path id="path6927-2-0-4-2-8" d="m 243.75629,451.58823 0,122.95986 -42.23768,0 0,38.98822" style="fill:none;stroke:#76b748;stroke-width:3.14151597;stroke-linecap:round;stroke-linejoin:miter;stroke-miterlimit:4;stroke-opacity:1;stroke-dasharray:none;stroke-dashoffset:0;display:inline"/><path id="path6927-85-1-82-4-6" d="m 153.82483,518.1595 0,51.40194 38.60736,0 0,32.80598" style="fill:none;stroke:#0d5cab;stroke-width:3.14151597;stroke-linecap:round;stroke-linejoin:miter;stroke-miterlimit:4;stroke-opacity:.98229986;stroke-dasharray:none;stroke-dashoffset:0;display:inline"/><path id="path6927-2-0-0-0" d="m 238.8507,446.68262 0,122.95999 -42.2377,0 0,38.98822" style="fill:none;stroke:#125fad;stroke-width:3.14151597;stroke-linecap:round;stroke-linejoin:miter;stroke-miterlimit:4;stroke-opacity:.98039216;stroke-dasharray:none;stroke-dashoffset:0;display:inline"/><path id="path6927-8-3-7-6-1-5-42-8-2-3" d="m 151.7478,367.47392 0,68.37168" style="fill:none;stroke:#0d5cab;stroke-width:3.14151597;stroke-linecap:round;stroke-linejoin:miter;stroke-miterlimit:4;stroke-opacity:1;stroke-dasharray:none;stroke-dashoffset:0;display:inline"/><path id="path6927-8-3-7-6-1-5-4-0-8-3" d="m 149.95272,276.34547 0,68.37167" style="fill:none;stroke:#0d5cab;stroke-width:3.14151597;stroke-linecap:round;stroke-linejoin:miter;stroke-miterlimit:4;stroke-opacity:1;stroke-dasharray:none;stroke-dashoffset:0;display:inline"/><path id="path6927-85-1-4-5" d="m 242.03254,278.99924 0,168.01764" style="fill:none;stroke:#f15c22;stroke-width:3.14151597;stroke-linecap:round;stroke-linejoin:miter;stroke-miterlimit:4;stroke-opacity:1;stroke-dasharray:none;stroke-dashoffset:0;display:inline"/><path id="path6927-8-80-9-4-1" d="m 155.23773,359.16804 0,-43.01409 81.41631,0 0,-41.19382" style="fill:none;stroke:#72b340;stroke-width:3.14151597;stroke-linecap:round;stroke-linejoin:miter;stroke-miterlimit:4;stroke-opacity:1;stroke-dasharray:none;stroke-dashoffset:0;display:inline"/><a style="display:inline" id="a45113" transform="matrix(0,1.4358831,-1.4358831,0,684.76325,-185.67215)" xlink:href="#network_discovery"><g id="g28252"><path style="fill:#fff;fill-opacity:1;stroke:#76b748;stroke-width:48.12016296;stroke-linejoin:round;stroke-miterlimit:4;stroke-opacity:1;stroke-dasharray:none;stroke-dashoffset:0" id="path4254-3-8-5-8-3-9-6-5" d="m -917.63713,738.2251 c 0,88.11481 -71.43117,159.54597 -159.54597,159.54597 -88.1148,0 -159.546,-71.43116 -159.546,-159.54597 0,-88.11481 71.4312,-159.54598 159.546,-159.54598 88.1148,0 159.54597,71.43117 159.54597,159.54598 z" transform="matrix(0.07313248,0,0,-0.07313248,393.16884,426.04464)"/><rect style="fill:#0d5cab;fill-opacity:1;stroke:#0d5cab;stroke-width:.50423461;stroke-linejoin:round;stroke-miterlimit:4;stroke-opacity:1;stroke-dasharray:none;stroke-dashoffset:0" id="rect4554-3-0-8-6-87-4-4" width="15.107" height="14.658" x="306.789" y="-379.388" ry="7.329" transform="scale(1,-1)"/></g></a><a style="display:inline" id="a41603" transform="matrix(0,1.4358831,-1.4358831,0,684.76325,-185.67215)" xlink:href="#risk_modeling"><g id="g28256"><path style="fill:#fff;fill-opacity:1;stroke:#70b440;stroke-width:48.12016296;stroke-linejoin:round;stroke-miterlimit:4;stroke-opacity:.98039216;stroke-dasharray:none;stroke-dashoffset:0" id="path4254-3-8-5-0-09-3-90-1-3-8" d="m -917.63713,738.2251 c 0,88.11481 -71.43117,159.54597 -159.54597,159.54597 -88.1148,0 -159.546,-71.43116 -159.546,-159.54597 0,-88.11481 71.4312,-159.54598 159.546,-159.54598 88.1148,0 159.54597,71.43117 159.54597,159.54598 z" transform="matrix(0.05573072,0.05573072,0.05573072,-0.05573072,333.57856,411.6095)"/><rect style="fill:#f15c22;fill-opacity:.98039216;stroke:none" id="rect4554-3-0-2-5-6-1-8-4-0" width="16.28" height="15.797" x="433.835" y="-4.895" ry="7.899" transform="matrix(0.70710678,0.70710678,0.70710678,-0.70710678,0,0)"/></g></a><a style="display:inline" id="a46328" transform="matrix(0,1.4358831,-1.4358831,0,684.76325,-185.67215)" xlink:href="#network_access"><g id="g28247"><g id="g5501-5-0-1-7-9" transform="matrix(0.31255189,0,0,-0.31255189,686.95589,1102.1351)"><path id="path4254-3-8-5-8-3-1-7-2-0" d="m -917.63713,738.2251 c 0,88.11481 -71.43117,159.54597 -159.54597,159.54597 -88.1148,0 -159.546,-71.43116 -159.546,-159.54597 0,-88.11481 71.4312,-159.54598 159.546,-159.54598 88.1148,0 159.54597,71.43117 159.54597,159.54598 z" transform="matrix(0.23398505,0,0,0.23398505,-738.90423,2165.7693)" style="fill:#fff;fill-opacity:1;stroke:#0d5cab;stroke-width:48.12016296;stroke-linejoin:round;stroke-miterlimit:4;stroke-opacity:1;stroke-dasharray:none;stroke-dashoffset:0"/><rect id="rect4554-3-0-8-6-3-2-7-7" width="48.333" height="46.899" x="-1015.273" y="2315.045" ry="23.45" style="fill:#0d5cab;fill-opacity:1;stroke:#0d5cab;stroke-width:1.61328292;stroke-linejoin:round;stroke-miterlimit:4;stroke-opacity:1;stroke-dasharray:none;stroke-dashoffset:0"/></g></g></a><a style="display:inline" id="a47518" transform="matrix(0,1.4358831,-1.4358831,0,684.76325,-185.67215)" xlink:href="#network_mapping"><g id="g28234"><g id="g5501-5-3-8-1-1" transform="matrix(0.31255189,0,0,-0.31255189,749.50727,1101.9404)"><path id="path4254-3-8-5-8-3-3-2-7-0" d="m -917.63713,738.2251 c 0,88.11481 -71.43117,159.54597 -159.54597,159.54597 -88.1148,0 -159.546,-71.43116 -159.546,-159.54597 0,-88.11481 71.4312,-159.54598 159.546,-159.54598 88.1148,0 159.54597,71.43117 159.54597,159.54598 z" transform="matrix(0.23398505,0,0,0.23398505,-738.90423,2165.7693)" style="fill:#fff;fill-opacity:1;stroke:#0d5cab;stroke-width:48.12016296;stroke-linejoin:round;stroke-miterlimit:4;stroke-opacity:1;stroke-dasharray:none;stroke-dashoffset:0"/><rect id="rect4554-3-0-8-6-5-7-6-7" width="48.333" height="46.899" x="-1015.273" y="2315.045" ry="23.45" style="fill:#0d5cab;fill-opacity:1;stroke:#0d5cab;stroke-width:1.61328292;stroke-linejoin:round;stroke-miterlimit:4;stroke-opacity:1;stroke-dasharray:none;stroke-dashoffset:0"/></g></g></a><a style="display:inline" id="a64392" transform="matrix(0,1.4358831,-1.4358831,0,684.76325,-187.01874)" xlink:href="#data_assessment"><g id="g62714"><g id="g28239"><path id="path4254-3-8-5-0-09-3-3-4-7-9" d="m -917.63713,738.2251 c 0,88.11481 -71.43117,159.54597 -159.54597,159.54597 -88.1148,0 -159.546,-71.43116 -159.546,-159.54597 0,-88.11481 71.4312,-159.54598 159.546,-159.54598 88.1148,0 159.54597,71.43117 159.54597,159.54598 z" transform="matrix(0.05573072,0.05573072,0.05573072,-0.05573072,457.12735,409.6275)" style="fill:#fff;fill-opacity:1;stroke:#125fad;stroke-width:48.12016296;stroke-linejoin:round;stroke-miterlimit:4;stroke-opacity:.98039216;stroke-dasharray:none;stroke-dashoffset:0"/><rect id="rect4554-3-0-2-5-6-0-5-4-0" width="16.28" height="15.797" x="519.795" y="83.869" ry="7.899" transform="matrix(0.70710678,0.70710678,0.70710678,-0.70710678,0,0)" style="fill:#76b748;fill-opacity:1;stroke:none"/></g></g></a><a style="display:inline" id="a26253" transform="matrix(0,1.4358831,-1.4358831,0,684.76325,-185.67215)" xlink:href="#social_engineering"><g id="g25864"><path style="fill:#fff;fill-opacity:1;stroke:#76b748;stroke-width:48.12016296;stroke-linejoin:round;stroke-miterlimit:4;stroke-opacity:1;stroke-dasharray:none;stroke-dashoffset:0" id="path4254-3-8-5-0-9-1-1-1-1" d="m -917.63713,738.2251 c 0,88.11481 -71.43117,159.54597 -159.54597,159.54597 -88.1148,0 -159.546,-71.43116 -159.546,-159.54597 0,-88.11481 71.4312,-159.54598 159.546,-159.54598 88.1148,0 159.54597,71.43117 159.54597,159.54598 z" transform="matrix(0.05573071,0.05573071,0.05573071,-0.05573071,577.72804,443.4251)"/><rect style="fill:#f15c22;fill-opacity:1;stroke:none" id="rect4554-3-0-2-36-16-9-5-5" width="16.28" height="15.797" x="628.971" y="145.248" ry="7.899" transform="matrix(0.70710678,0.70710678,0.70710678,-0.70710678,0,0)"/></g></a><text id="text6735-3-7-2-2-3-77-3-5-2-2" x="127.462" y="261.99" xml:space="preserve" style="font-size:8.97575951px;font-style:normal;font-weight:400;text-align:end;line-height:100%;letter-spacing:0;word-spacing:0;text-anchor:end;fill:#000;fill-opacity:1;stroke:none;display:inline;font-family:Sans"><tspan id="tspan12241-4-0-3" x="127.462" y="261.99" style="font-size:9.87333488px;font-style:normal;font-variant:normal;font-weight:700;font-stretch:normal;text-align:end;line-height:100%;text-anchor:end;font-family:Droid Sans;-inkscape-font-specification:Droid Sans Bold">Network</tspan><tspan id="tspan12280-5-4" x="127.462" y="271.863" style="font-size:9.87333488px;font-style:normal;font-variant:normal;font-weight:700;font-stretch:normal;text-align:end;line-height:100%;text-anchor:end;font-family:Droid Sans;-inkscape-font-specification:Droid Sans Bold">Discovery</tspan></text><text id="text6735-3-7-2-2-3-77-3-5-8-9-6" x="127.184" y="355.737" xml:space="preserve" style="font-size:8.97575951px;font-style:normal;font-weight:400;text-align:end;line-height:100%;letter-spacing:0;word-spacing:0;text-anchor:end;fill:#000;fill-opacity:1;stroke:none;display:inline;font-family:Sans"><tspan id="tspan12241-4-9-3-8" x="127.184" y="355.737" style="font-size:9.87333488px;font-style:normal;font-variant:normal;font-weight:700;font-stretch:normal;text-align:end;line-height:100%;text-anchor:end;font-family:Droid Sans;-inkscape-font-specification:Droid Sans Bold">Network</tspan><tspan id="tspan12280-3-8-5" x="127.184" y="365.611" style="font-size:9.87333488px;font-style:normal;font-variant:normal;font-weight:700;font-stretch:normal;text-align:end;line-height:100%;text-anchor:end;font-family:Droid Sans;-inkscape-font-specification:Droid Sans Bold">Access</tspan></text><text id="text6735-3-7-2-2-3-77-3-5-0-1-9" x="126.955" y="443.577" xml:space="preserve" style="font-size:8.97575951px;font-style:normal;font-weight:400;text-align:end;line-height:100%;letter-spacing:0;word-spacing:0;text-anchor:end;fill:#000;fill-opacity:1;stroke:none;display:inline;font-family:Sans"><tspan id="tspan12241-4-1-5-5" x="126.955" y="443.577" style="font-size:9.87333488px;font-style:normal;font-variant:normal;font-weight:700;font-stretch:normal;text-align:end;line-height:100%;text-anchor:end;font-family:Droid Sans;-inkscape-font-specification:Droid Sans Bold">Network</tspan><tspan id="tspan12280-33-0-8" x="126.955" y="453.45" style="font-size:9.87333488px;font-style:normal;font-variant:normal;font-weight:700;font-stretch:normal;text-align:end;line-height:100%;text-anchor:end;font-family:Droid Sans;-inkscape-font-specification:Droid Sans Bold">Mapping</tspan></text><text id="text6735-3-7-2-2-3-77-3-5-88-7-7" x="263.766" y="263.693" xml:space="preserve" style="font-size:8.97575951px;font-style:normal;font-weight:400;text-align:start;line-height:100%;letter-spacing:0;word-spacing:0;text-anchor:start;fill:#000;fill-opacity:1;stroke:none;display:inline;font-family:Sans"><tspan id="tspan12280-4-3-2" x="263.766" y="263.693" style="font-size:9.87333488px;font-style:normal;font-variant:normal;font-weight:700;font-stretch:normal;text-align:start;line-height:100%;text-anchor:start;font-family:Droid Sans;-inkscape-font-specification:Droid Sans Bold">Risk</tspan><tspan id="tspan12330-3-3" x="263.766" y="273.566" style="font-size:9.87333488px;font-style:normal;font-variant:normal;font-weight:700;font-stretch:normal;text-align:start;line-height:100%;text-anchor:start;font-family:Droid Sans;-inkscape-font-specification:Droid Sans Bold">Modeling</tspan></text><text id="text6735-3-7-2-2-3-77-3-5-4-3-2" x="268.336" y="440.723" xml:space="preserve" style="font-size:8.97575951px;font-style:normal;font-weight:400;text-align:start;line-height:100%;letter-spacing:0;word-spacing:0;text-anchor:start;fill:#000;fill-opacity:1;stroke:none;display:inline;font-family:Sans"><tspan id="tspan12360-7-0" x="268.336" y="440.723" style="font-size:9.87333488px;font-style:normal;font-variant:normal;font-weight:700;font-stretch:normal;text-align:start;line-height:100%;text-anchor:start;font-family:Droid Sans;-inkscape-font-specification:Droid Sans Bold">Data</tspan><tspan id="tspan12362-9-1" x="268.336" y="450.597" style="font-size:9.87333488px;font-style:normal;font-variant:normal;font-weight:700;font-stretch:normal;text-align:start;line-height:100%;text-anchor:start;font-family:Droid Sans;-inkscape-font-specification:Droid Sans Bold">Assessment</tspan></text><text id="text6735-3-7-2-2-3-77-3-5-80-15-1" x="165.969" y="611.44" xml:space="preserve" style="font-size:8.97575951px;font-style:normal;font-weight:400;text-align:end;line-height:100%;letter-spacing:0;word-spacing:0;text-anchor:end;fill:#000;fill-opacity:1;stroke:none;display:inline;font-family:Sans"><tspan id="tspan12280-37-5-0" x="165.969" y="611.44" style="font-size:9.87333488px;font-style:normal;font-variant:normal;font-weight:700;font-stretch:normal;text-align:end;line-height:100%;text-anchor:end;font-family:Droid Sans;-inkscape-font-specification:Droid Sans Bold">Social</tspan><tspan id="tspan12435-3-5" x="165.969" y="621.314" style="font-size:9.87333488px;font-style:normal;font-variant:normal;font-weight:700;font-stretch:normal;text-align:end;line-height:100%;text-anchor:end;font-family:Droid Sans;-inkscape-font-specification:Droid Sans Bold">Engineering</tspan><tspan id="tspan12437-3-6" x="165.969" y="631.187" style="font-size:9.87333488px;font-style:normal;font-variant:normal;font-weight:700;font-stretch:normal;text-align:end;line-height:100%;text-anchor:end;font-family:Droid Sans;-inkscape-font-specification:Droid Sans Bold">Excercise</tspan></text><a style="display:inline" id="a44147" transform="matrix(0,1.4358831,-1.4358831,0,684.76325,-187.01874)" xlink:href="#user_device_assessment"><g id="g28225"><path style="fill:#fff;fill-opacity:1;stroke:#0d5cab;stroke-width:48.12016296;stroke-linejoin:round;stroke-miterlimit:4;stroke-opacity:1;stroke-dasharray:none;stroke-dashoffset:0" id="path4254-3-8-5-0-9-9-0-5-5-4" d="m -917.63713,738.2251 c 0,88.11481 -71.43117,159.54597 -159.54597,159.54597 -88.1148,0 -159.546,-71.43116 -159.546,-159.54597 0,-88.11481 71.4312,-159.54598 159.546,-159.54598 88.1148,0 159.54597,71.43117 159.54597,159.54598 z" transform="matrix(0.05573072,0.05573072,0.05573072,-0.05573072,518.49627,410.14233)"/><rect style="fill:#f15f26;fill-opacity:1;stroke:none" id="rect4554-3-0-2-36-36-5-9-3-0" width="16.28" height="15.797" x="563.553" y="126.9" ry="7.899" transform="matrix(0.70710678,0.70710678,0.70710678,-0.70710678,0,0)"/></g></a><text id="text6735-3-7-2-2-3-77-3-5-87-7-6-4" x="268.697" y="528.572" xml:space="preserve" style="font-size:8.97575951px;font-style:normal;font-weight:400;text-align:start;line-height:100%;letter-spacing:0;word-spacing:0;text-anchor:start;fill:#000;fill-opacity:1;stroke:none;display:inline;font-family:Sans"><tspan id="tspan12345-5-5-0" x="268.697" y="528.572" style="font-size:9.87333488px;font-style:normal;font-variant:normal;font-weight:700;font-stretch:normal;text-align:start;line-height:100%;text-anchor:start;font-family:Droid Sans;-inkscape-font-specification:Droid Sans Bold">User Device</tspan><tspan style="font-size:9.87333488px;font-style:normal;font-variant:normal;font-weight:700;font-stretch:normal;text-align:start;line-height:100%;text-anchor:start;font-family:Droid Sans;-inkscape-font-specification:Droid Sans Bold" id="tspan4620-9-5" x="268.697" y="538.446">Assessment</tspan></text><a style="display:inline" id="a48893" transform="matrix(0,1.4358831,-1.4358831,0,684.76325,-185.67215)" xlink:href="#service_device_assessment"><g id="g28229"><g style="stroke:#76b748;stroke-opacity:1" id="g5501-5-3-8-0-8-2" transform="matrix(0.31255189,0,0,-0.31255189,811.00262,1101.9404)"><path id="path4254-3-8-5-8-3-3-2-6-1-0" d="m -917.63713,738.2251 c 0,88.11481 -71.43117,159.54597 -159.54597,159.54597 -88.1148,0 -159.546,-71.43116 -159.546,-159.54597 0,-88.11481 71.4312,-159.54598 159.546,-159.54598 88.1148,0 159.54597,71.43117 159.54597,159.54598 z" transform="matrix(0.23398505,0,0,0.23398505,-738.90423,2165.7693)" style="fill:#fff;fill-opacity:1;stroke:#76b748;stroke-width:48.12016296;stroke-linejoin:round;stroke-miterlimit:4;stroke-opacity:1;stroke-dasharray:none;stroke-dashoffset:0"/><rect id="rect4554-3-0-8-6-5-7-2-5-6" width="48.333" height="46.899" x="-1015.273" y="2315.045" ry="23.45" style="fill:#0d5cab;fill-opacity:1;stroke:#76b748;stroke-width:1.61328292;stroke-linejoin:round;stroke-miterlimit:4;stroke-opacity:1;stroke-dasharray:none;stroke-dashoffset:0"/></g></g></a><text id="text6735-3-7-2-2-3-77-3-5-0-0-6-9" x="128.641" y="532.557" xml:space="preserve" style="font-size:8.97575951px;font-style:normal;font-weight:400;text-align:end;line-height:100%;letter-spacing:0;word-spacing:0;text-anchor:end;fill:#000;fill-opacity:1;stroke:none;display:inline;font-family:Sans"><tspan id="tspan12280-33-6-6-8" x="128.641" y="532.557" style="font-size:9.87333488px;font-style:normal;font-variant:normal;font-weight:700;font-stretch:normal;text-align:end;line-height:100%;text-anchor:end;font-family:Droid Sans;-inkscape-font-specification:Droid Sans Bold">Service Device</tspan><tspan style="font-size:9.87333488px;font-style:normal;font-variant:normal;font-weight:700;font-stretch:normal;text-align:end;line-height:100%;text-anchor:end;font-family:Droid Sans;-inkscape-font-specification:Droid Sans Bold" id="tspan4624-0-5" x="128.641" y="542.43">Assesment</tspan></text><a style="display:inline" id="a24070" transform="matrix(0,1.4358831,-1.4358831,0,684.76325,-185.67215)" xlink:href="#debrief"><g id="g23511"><path style="fill:#fff;fill-opacity:1;stroke:#76b748;stroke-width:48.12016296;stroke-linejoin:round;stroke-miterlimit:4;stroke-opacity:1;stroke-dasharray:none;stroke-dashoffset:0" id="path4254-3-8-5-0-9-1-1-6-6-2" d="m -917.63713,738.2251 c 0,88.11481 -71.43117,159.54597 -159.54597,159.54597 -88.1148,0 -159.546,-71.43116 -159.546,-159.54597 0,-88.11481 71.4312,-159.54598 159.546,-159.54598 88.1148,0 159.54597,71.43117 159.54597,159.54598 z" transform="matrix(0.05573071,0.05573071,0.05573071,-0.05573071,639.2234,443.4251)"/><rect style="fill:#f15c22;fill-opacity:1;stroke:none" id="rect4554-3-0-2-36-16-9-8-9-8" width="16.28" height="15.797" x="672.455" y="188.732" ry="7.899" transform="matrix(0.70710678,0.70710678,0.70710678,-0.70710678,0,0)"/></g></a><text id="text6735-3-7-2-2-3-77-3-5-80-1-0-3" x="165.224" y="709.87" xml:space="preserve" style="font-size:8.97575951px;font-style:normal;font-weight:400;text-align:end;line-height:100%;letter-spacing:0;word-spacing:0;text-anchor:end;fill:#000;fill-opacity:1;stroke:none;display:inline;font-family:Sans"><tspan id="tspan12437-7-6-1" x="165.224" y="709.87" style="font-size:9.87333488px;font-style:normal;font-variant:normal;font-weight:700;font-stretch:normal;text-align:end;line-height:100%;text-anchor:end;font-family:Droid Sans;-inkscape-font-specification:Droid Sans Bold">Debrief</tspan></text></g></svg>