<svg xmlns="http://www.w3.org/2000/svg" xmlns:svg="http://www.w3.org/2000/svg" id="svg3234" width="211.323" height="352.898" direction="rtl" version="1.1" xml:lang="fa"><metadata id="metadata3239"/><g id="layer1" transform="translate(-257.19574,-324.48471)"><path style="font-size:medium;font-style:normal;font-variant:normal;font-weight:400;font-stretch:normal;text-indent:0;text-align:start;text-decoration:none;line-height:normal;letter-spacing:normal;word-spacing:normal;text-transform:none;direction:ltr;block-progression:tb;writing-mode:lr-tb;text-anchor:start;baseline-shift:baseline;color:#000;fill:#73b544;fill-opacity:1;stroke:none;stroke-width:6.78870249;marker:none;visibility:visible;display:inline;overflow:visible;enable-background:accumulate;font-family:Sans;-inkscape-font-specification:Sans" id="path7272" d="m 328.20402,423.05276 -7.125,0.0937 -7.0624,0.125 -7.125,0.125 3,4.96875 c -29.4663,15.76283 -47.1527,48.93726 -41.7188,83.78125 5.5935,35.86782 33.9818,62.57395 68.1562,67.5625 l 1,-6.71875 c -31.2847,-4.56673 -57.335,-28.95604 -62.4687,-61.875 -5.0038,-32.08524 11.3956,-62.53681 38.5313,-76.90625 l 4.4374,7.5 5.2188,-9.34375 5.1562,-9.3125 z"/><text style="font-size:10.00602055px;font-style:normal;font-weight:700;text-align:center;line-height:125%;letter-spacing:0;word-spacing:0;text-anchor:middle;fill:#000;fill-opacity:.97647059;stroke:none;font-family:Sans;-inkscape-font-specification:Sans Bold" id="text4032-6-0-4" x="365.983" y="342.087" xml:space="preserve"><tspan id="tspan4034-3-9-9" x="365.983" y="342.087">Pre-Audit</tspan><tspan id="tspan4915-3-5-2" x="365.983" y="354.594">الأنشطة</tspan></text><text style="font-size:10.00602055px;font-style:normal;font-weight:700;text-align:center;line-height:125%;letter-spacing:0;word-spacing:0;text-anchor:middle;fill:#000;fill-opacity:.97647059;stroke:none;font-family:Sans;-inkscape-font-specification:Sans Bold" id="text4044-9-3-7" x="366.017" y="654.733" xml:space="preserve"><tspan id="tspan4046-4-1-4" x="366.017" y="654.733">Reporting</tspan><tspan id="tspan4913-7-8-4" x="366.017" y="667.241">الأنشطة</tspan></text><path style="font-size:medium;font-style:normal;font-variant:normal;font-weight:400;font-stretch:normal;text-indent:0;text-align:start;text-decoration:none;line-height:normal;letter-spacing:normal;word-spacing:normal;text-transform:none;direction:ltr;block-progression:tb;writing-mode:lr-tb;text-anchor:start;baseline-shift:baseline;color:#000;fill:#0e5cac;fill-opacity:.96078431;stroke:none;stroke-width:5;marker:none;visibility:visible;display:inline;overflow:visible;enable-background:accumulate;font-family:Sans;-inkscape-font-specification:Sans" id="path4849-3-2-1" d="m 375.47101,387.22897 -6.2926,0 -10e-5,-23.69743 -6.25389,0 0,23.69743 -6.2927,0 4.7293,8.16907 4.6904,8.16901 4.72929,-8.16901 z"/><path style="font-size:medium;font-style:normal;font-variant:normal;font-weight:400;font-stretch:normal;text-indent:0;text-align:start;text-decoration:none;line-height:normal;letter-spacing:normal;word-spacing:normal;text-transform:none;direction:ltr;block-progression:tb;writing-mode:lr-tb;text-anchor:start;baseline-shift:baseline;color:#000;fill:#0e5cac;fill-opacity:.96078431;stroke:none;stroke-width:5;marker:none;visibility:visible;display:inline;overflow:visible;enable-background:accumulate;font-family:Sans;-inkscape-font-specification:Sans" id="path4849-3-5-5-7" d="m 375.47101,615.45766 -6.2926,0 -10e-5,-23.69749 -6.25389,0 0,23.69749 -6.2927,0 4.7293,8.16889 4.6904,8.16914 4.72929,-8.16914 z"/><text style="font-size:10.00602055px;font-style:normal;font-weight:700;text-align:center;line-height:125%;letter-spacing:0;word-spacing:0;text-anchor:middle;fill:#000;fill-opacity:.97647059;stroke:none;font-family:Sans;-inkscape-font-specification:Sans Bold" id="text4040-1-1-8" x="366.266" y="526.299" xml:space="preserve"><tspan id="tspan4042-5-5-9" x="366.266" y="526.299">Support</tspan><tspan id="tspan4911-2-2-6" x="366.266" y="538.807">الأنشطة</tspan></text><text style="font-size:10.00602055px;font-style:normal;font-weight:700;text-align:center;line-height:125%;letter-spacing:0;word-spacing:0;text-anchor:middle;fill:#000;fill-opacity:.97647059;stroke:none;font-family:Sans;-inkscape-font-specification:Sans Bold" id="text4040-1-1-6-8" x="366.017" y="466.299" xml:space="preserve"><tspan id="tspan4911-2-2-0-2" x="367.757" y="466.299">Agency </tspan><tspan id="tspan7121-5" x="366.017" y="478.807">Building</tspan></text><text style="font-size:10.00601292px;font-style:normal;font-weight:700;text-align:center;line-height:125%;letter-spacing:0;word-spacing:0;text-anchor:middle;fill:#000;fill-opacity:.97647059;stroke:none;font-family:Sans;-inkscape-font-specification:Sans Bold" id="text4036-2-7-2" x="366.266" y="572.034" xml:space="preserve"><tspan id="tspan4038-8-9-6" x="366.266" y="572.034">Audit</tspan><tspan id="tspan4054-8-1-0" x="366.266" y="584.541">الأنشطة</tspan></text><text style="font-size:10.00601292px;font-style:normal;font-weight:700;text-align:center;line-height:125%;letter-spacing:0;word-spacing:0;text-anchor:middle;fill:#000;fill-opacity:.97647059;stroke:none;font-family:Sans;-inkscape-font-specification:Sans Bold" id="text4048-6-0-6" x="365.592" y="418.29" xml:space="preserve"><tspan id="tspan4050-4-3-6" x="367.331" y="418.29">معلومات </tspan><tspan id="tspan4052-1-9-5" x="365.592" y="430.797">Gathering</tspan></text><g id="g7652" transform="translate(-933.70217,-270.47849)" style="fill:#f15c22;fill-opacity:1"><path id="path7272-3" d="m 1270.3438,738.3125 c -14.3846,4.00239 -25.1194,17.02008 -25.5626,32.6875 -0.443,15.66746 9.523,29.25418 23.6563,34.0625 l 1.8437,-5.375 c -11.8208,-4.0216 -20.185,-15.35903 -19.8124,-28.53125 0.3726,-13.17228 9.3473,-24.02841 21.375,-27.375 l -1.5,-5.46875 z" style="font-size:medium;font-style:normal;font-variant:normal;font-weight:400;font-stretch:normal;text-indent:0;text-align:start;text-decoration:none;line-height:normal;letter-spacing:normal;word-spacing:normal;text-transform:none;direction:ltr;block-progression:tb;writing-mode:lr-tb;text-anchor:start;baseline-shift:baseline;color:#000;fill:#f15c22;fill-opacity:1;stroke:none;stroke-width:5.67799997;marker:none;visibility:visible;display:inline;overflow:visible;enable-background:accumulate;font-family:Sans;-inkscape-font-specification:Sans"/><path id="path4849-3-9-3-8-2" d="m 1276.8995,738.94154 -6.0556,-1.02296 -6.0179,-1.01662 -6.0555,-1.02295 3.2231,8.62977 3.1857,8.62335 5.8787,-7.0921 z" style="font-size:medium;font-style:normal;font-variant:normal;font-weight:400;font-stretch:normal;text-indent:0;text-align:start;text-decoration:none;line-height:normal;letter-spacing:normal;word-spacing:normal;text-transform:none;direction:ltr;block-progression:tb;writing-mode:lr-tb;text-anchor:start;baseline-shift:baseline;color:#000;fill:#f15c22;fill-opacity:1;stroke:none;stroke-width:5;marker:none;visibility:visible;display:inline;overflow:visible;enable-background:accumulate;font-family:Sans;-inkscape-font-specification:Sans"/></g><path style="font-size:medium;font-style:normal;font-variant:normal;font-weight:400;font-stretch:normal;text-indent:0;text-align:start;text-decoration:none;line-height:normal;letter-spacing:normal;word-spacing:normal;text-transform:none;direction:ltr;block-progression:tb;writing-mode:lr-tb;text-anchor:start;baseline-shift:baseline;color:#000;fill:#73b544;fill-opacity:1;stroke:none;stroke-width:5;marker:none;visibility:visible;display:inline;overflow:visible;enable-background:accumulate;font-family:Sans;-inkscape-font-specification:Sans" id="path4849-3-9-3-8-7" d="m 400.98531,423.11526 -1.9375,6.5 c 30.2692,9.12504 52.4591,37.12372 52.6875,70.4375 0.2056,29.98138 -17.4343,55.88382 -42.9375,67.71875 l -2.7812,-6.84375 -6.5313,8.46875 -6.4687,8.46875 7.0624,0.9375 7,0.9375 7.0626,0.9375 -2.75,-6.65625 c 27.9828,-12.8787 47.3496,-41.23496 47.125,-74 -0.249,-36.30282 -24.4629,-66.93737 -57.5313,-76.90625 z"/><g id="g7656" transform="translate(-933.70217,-270.47849)" style="fill:#f15c22;fill-opacity:1"><path id="path4849-3-9-3-8-2-7" d="m 1328.1425,803.27441 6.1397,-0.14399 6.1015,-0.14306 6.1396,-0.14399 -4.8012,-7.86194 -4.7632,-7.86273 -4.4271,8.07825 z" style="font-size:medium;font-style:normal;font-variant:normal;font-weight:400;font-stretch:normal;text-indent:0;text-align:start;text-decoration:none;line-height:normal;letter-spacing:normal;word-spacing:normal;text-transform:none;direction:ltr;block-progression:tb;writing-mode:lr-tb;text-anchor:start;baseline-shift:baseline;color:#000;fill:#f15c22;fill-opacity:1;stroke:none;stroke-width:5;marker:none;visibility:visible;display:inline;overflow:visible;enable-background:accumulate;font-family:Sans;-inkscape-font-specification:Sans"/><path id="path7272-3-3" d="m 1325.1875,735.5625 -0.7813,5.625 c 12.3678,1.70671 22.7431,11.27929 24.875,24.28125 2.1321,13.00194 -4.6357,25.33835 -15.8124,30.90625 l 2.5312,5.09375 c 13.362,-6.65652 21.4116,-21.46844 18.875,-36.9375 -2.5365,-15.46908 -14.8975,-26.92778 -29.6875,-28.96875 z" style="font-size:medium;font-style:normal;font-variant:normal;font-weight:400;font-stretch:normal;text-indent:0;text-align:start;text-decoration:none;line-height:normal;letter-spacing:normal;word-spacing:normal;text-transform:none;direction:ltr;block-progression:tb;writing-mode:lr-tb;text-anchor:start;baseline-shift:baseline;color:#000;fill:#f15c22;fill-opacity:1;stroke:none;stroke-width:5.67799997;marker:none;visibility:visible;display:inline;overflow:visible;enable-background:accumulate;font-family:Sans;-inkscape-font-specification:Sans"/></g></g></svg>