<svg xmlns="http://www.w3.org/2000/svg" xmlns:svg="http://www.w3.org/2000/svg" xmlns:xlink="http://www.w3.org/1999/xlink" id="svg3300" width="516.926" height="108.089" direction="rtl" version="1.1" xml:lang="fa"><metadata id="metadata3305"/><g id="layer1" transform="translate(-123.73046,-269.99741)"><path style="fill:none;stroke:#000;stroke-width:3;stroke-linecap:butt;stroke-linejoin:miter;stroke-miterlimit:4;stroke-opacity:1;stroke-dasharray:none" id="path4452" d="m 125.0528,363.84512 515.60869,0"/><a style="display:inline" id="a62037" transform="matrix(1.9613391,0,0,1.9613391,45.519428,156.96492)" xlink:href="#SAFETAG"><g id="g14480-6-7" transform="matrix(0.59760037,0,0,0.59760037,26.118312,51.841621)"><path id="path13621-5-7-1" d="m 72.520268,18.359616 0,14.48279 c -3.75824,-1.68044 -7.42477,-2.94845 -10.99958,-3.80402 -3.57491,-0.85547 -6.95117,-1.28323 -10.12879,-1.28329 -4.21654,6e-5 -7.33309,0.58059 -9.34965,1.7416 -2.01662,1.16112 -3.02491,2.96383 -3.02489,5.40813 -2e-5,1.83331 0.67218,3.26937 2.01659,4.30817 1.37493,1.00834 3.84983,1.87914 7.42473,2.61241 l 7.51638,1.51244 c 7.608,1.52776 13.01613,3.84989 16.22439,6.96641 3.20816,3.11658 4.81226,7.54696 4.81232,13.29116 -6e-5,7.54696 -2.2458,13.16896 -6.73724,16.86604 -4.461,3.66653 -11.289901,5.49979 -20.48674,5.49979 -4.33875,0 -8.69275,-0.41248 -13.06201,-1.23745 -4.3693,-0.82497 -8.73857,-2.04714 -13.10784,-3.66653 l 0,-14.89528 c 4.36927,2.32216 8.58577,4.07903 12.64953,5.27064 4.09426,1.16108 8.03578,1.74161 11.82455,1.7416 3.84982,10e-6 6.79832,-0.64163 8.8455,-1.92493 2.047109,-1.28327 3.070679,-3.11653 3.070719,-5.49979 -4e-5,-2.13879 -0.70279,-3.78872 -2.108249,-4.94981 -1.37499,-1.16105 -4.14016,-2.1999 -8.29552,-3.11655 l -6.82891,-1.51245 c -6.84421,-1.46658 -11.85513,-3.80399 -15.03278,-7.01224 -3.14711,-3.20817 -4.72066,-7.53161 -4.72065,-12.97034 -10e-6,-6.81358 2.19991,-12.05366 6.59975,-15.72025 4.39982,-3.66646 10.72458,-5.49972 18.97429,-5.49979 3.75816,7e-5 7.62329,0.29033 11.595399,0.8708 3.972031,0.55005 8.081591,1.39029 12.328701,2.52074" style="font-size:93.86315155px;font-style:normal;font-weight:700;line-height:125%;letter-spacing:0;word-spacing:0;fill:#000;fill-opacity:1;stroke:none;font-family:Sans;-inkscape-font-specification:Sans Bold"/><path id="path13623-4-3-8" d="m 134.07214,72.165936 -27.59064,0 -4.354,12.4662 -17.736832,0 25.344882,-68.42661 21.03671,0 25.34489,68.42661 -17.73684,0 -4.30817,-12.4662 m -23.1908,-12.69536 18.74513,0 -9.34965,-27.22398 -9.39548,27.22398" style="font-size:93.86315155px;font-style:normal;font-weight:700;line-height:125%;letter-spacing:0;word-spacing:0;fill:#000;fill-opacity:1;stroke:none;font-family:Sans;-inkscape-font-specification:Sans Bold"/><path id="path13625-4-5-8" d="m 165.14597,16.205526 47.61905,0 0,13.337 -29.97388,0 0,12.74119 28.18644,0 0,13.337 -28.18644,0 0,29.01142 -17.64517,0 0,-68.42661" style="font-size:93.86315155px;font-style:normal;font-weight:700;line-height:125%;letter-spacing:0;word-spacing:0;fill:#000;fill-opacity:1;stroke:none;font-family:Sans;-inkscape-font-specification:Sans Bold"/><path id="path13627-6-0-6" d="m 229.31023,16.205526 47.61905,0 0,13.337 -29.97388,0 0,12.74119 28.18644,0 0,13.337 -28.18644,0 0,15.67442 30.98217,0 0,13.337 -48.62734,0 0,-68.42661" style="font-size:93.86315155px;font-style:normal;font-weight:700;line-height:125%;letter-spacing:0;word-spacing:0;fill:#000;fill-opacity:1;stroke:none;font-family:Sans;-inkscape-font-specification:Sans Bold"/><path id="path13629-5-3-4" d="m 285.31646,16.205526 63.0643,0 0,13.337 -22.68665,0 0,55.08961 -17.64517,0 0,-55.08961 -22.73248,0 0,-13.337" style="font-size:93.86315155px;font-style:normal;font-weight:700;line-height:125%;letter-spacing:0;word-spacing:0;fill:#000;fill-opacity:1;stroke:none;font-family:Sans;-inkscape-font-specification:Sans Bold"/><path id="path13633-8-3-7-9" d="m 460.67234,75.544826 c -4.3999,2.13881 -8.96778,3.74291 -13.70365,4.81232 -4.73598,1.0694 -9.62468,1.6041 -14.66612,1.6041 -11.39682,0 -20.42564,-3.17765 -27.08648,-9.53297 -6.66087,-6.38586 -9.9913,-15.03275 -9.99129,-25.9407 -1e-5,-11.0301 3.39153,-19.70754 10.17461,-26.03236 6.78306,-6.32469 16.07159,-9.48707 27.86563,-9.48714 4.55256,7e-5 8.90656,0.42783 13.06201,1.28328 4.18589,0.8556 8.12741,2.1236 11.82456,3.80403 l 0,20.16197 c -3.81937,-2.16931 -7.62339,-3.78869 -11.41208,-4.85815 -3.75824,-1.06935 -7.53171,-1.60405 -11.32041,-1.60411 -7.02755,6e-5 -12.45095,1.97081 -16.27022,5.91228 -1.31605,3.08677 -3.75991,2.6935 -3.75989,9.99596 -2e-5,7.24142 -0.09,13.65712 3.57656,17.59861 3.6665,3.94154 8.87602,5.91229 15.62858,5.91228 1.83322,10e-6 3.52899,-0.10693 5.08731,-0.32082 1.58878,-0.24442 3.00956,-0.61107 4.26234,-1.09996 l 0,-13.29117 -10.77043,0 0,-11.82455 27.49897,0 0,32.9071" style="font-size:93.86315155px;font-style:normal;font-weight:700;line-height:125%;letter-spacing:0;word-spacing:0;fill:#fff;fill-opacity:1;stroke:none;font-family:Sans;-inkscape-font-specification:Sans Bold"/><path id="path13633-8-8-4" d="m 460.67234,79.544826 c -4.3999,2.13881 -8.96778,3.74291 -13.70365,4.81232 -4.73598,1.0694 -9.62468,1.6041 -14.66612,1.6041 -11.39682,0 -20.42564,-3.17765 -27.08648,-9.53297 -6.66087,-6.38586 -9.9913,-15.03275 -9.99129,-25.9407 -1e-5,-11.0301 3.39153,-19.70754 10.17461,-26.03236 6.78306,-6.32469 16.07159,-9.48707 27.86563,-9.48714 4.55256,7e-5 8.90656,0.42783 13.06201,1.28328 4.18589,0.8556 8.12741,2.1236 11.82456,3.80403 l 0,14.16197 c -3.81937,-2.16931 -7.62339,-3.78869 -11.41208,-4.85815 -3.75824,-1.06935 -7.53171,-1.60405 -11.32041,-1.60411 -7.02755,6e-5 -12.45095,1.97081 -16.27022,5.91228 -3.78877,3.91101 -5.68314,9.51774 -5.68312,16.8202 -2e-5,7.24142 1.83324,12.83288 5.49979,16.77437 3.6665,3.94154 8.87602,5.91229 15.62858,5.91228 1.83322,10e-6 3.52899,-0.10693 5.08731,-0.32082 1.58878,-0.24442 3.00956,-0.61107 4.26234,-1.09996 l 0,-13.29117 -10.77043,0 0,-11.82455 27.49897,0 0,32.9071" style="font-size:93.86315155px;font-style:normal;font-weight:700;line-height:125%;letter-spacing:0;word-spacing:0;fill:#000;fill-opacity:1;stroke:none;font-family:Sans;-inkscape-font-specification:Sans Bold"/><g id="g14199-31-0" transform="translate(-127.33848,-468.75102)"><path id="rect13678-3-1" d="m 534.90702,509.55785 -16.23161,-29.51683 -33.49252,3.60007 -30.78586,59.06603 49.72412,25.91677 z" style="fill:#fff;fill-opacity:1;stroke:#000;stroke-width:3;stroke-miterlimit:4;stroke-dasharray:none"/><path id="path13681-7-2" d="m 776.54795,385.9834 c 0,7.06437 -5.72681,12.79117 -12.79118,12.79117 -7.06436,0 -12.79117,-5.7268 -12.79117,-12.79117 0,-7.06437 5.72681,-12.79117 12.79117,-12.79117 7.06437,0 12.79118,5.7268 12.79118,12.79117 z" transform="matrix(-0.40060763,-0.20880114,-0.20880114,0.40060763,896.61388,502.35482)" style="fill:#000;fill-opacity:1;stroke:none"/><path style="font-size:medium;font-style:normal;font-variant:normal;font-weight:400;font-stretch:normal;text-indent:0;text-align:start;text-decoration:none;line-height:normal;letter-spacing:normal;word-spacing:normal;text-transform:none;direction:ltr;block-progression:tb;writing-mode:lr-tb;text-anchor:start;baseline-shift:baseline;color:#000;fill:#000;fill-opacity:1;fill-rule:nonzero;stroke:none;stroke-width:4.4000001;marker:none;visibility:visible;display:inline;overflow:visible;enable-background:accumulate;font-family:Sans;-inkscape-font-specification:Sans" id="path14255-79-2" d="m 511.40625,496.0625 -0.8125,4.34375 25.53774,4.97209 0.84375,-4.3125 z"/><path style="font-size:medium;font-style:normal;font-variant:normal;font-weight:400;font-stretch:normal;text-indent:0;text-align:start;text-decoration:none;line-height:normal;letter-spacing:normal;word-spacing:normal;text-transform:none;direction:ltr;block-progression:tb;writing-mode:lr-tb;text-anchor:start;baseline-shift:baseline;color:#000;fill:#fff;fill-opacity:1;fill-rule:nonzero;stroke:none;stroke-width:4.4000001;marker:none;visibility:visible;display:inline;overflow:visible;enable-background:accumulate;font-family:Sans;-inkscape-font-specification:Sans" id="path14255-7-01-2" d="m 527.375,499.15625 2.77928,4.94634 21.18947,4.02241 0.8125,-4.3125 z"/></g><g id="g14199-3-9-2" transform="translate(-127.33848,-468.75102)"><path id="rect13678-1-7-4" d="m 534.90702,509.55785 -16.23161,-29.51683 -33.49252,3.60007 -30.78586,59.06603 49.72412,25.91677 z" style="fill:#fff;fill-opacity:1;stroke:#000;stroke-width:3;stroke-miterlimit:4;stroke-dasharray:none"/><path id="path13681-6-1-0" d="m 776.54795,385.9834 c 0,7.06437 -5.72681,12.79117 -12.79118,12.79117 -7.06436,0 -12.79117,-5.7268 -12.79117,-12.79117 0,-7.06437 5.72681,-12.79117 12.79117,-12.79117 7.06437,0 12.79118,5.7268 12.79118,12.79117 z" transform="matrix(-0.40060763,-0.20880114,-0.20880114,0.40060763,896.61388,502.35482)" style="fill:#000;fill-opacity:1;stroke:none"/><path style="font-size:medium;font-style:normal;font-variant:normal;font-weight:400;font-stretch:normal;text-indent:0;text-align:start;text-decoration:none;line-height:normal;letter-spacing:normal;word-spacing:normal;text-transform:none;direction:ltr;block-progression:tb;writing-mode:lr-tb;text-anchor:start;baseline-shift:baseline;color:#000;fill:#000;fill-opacity:1;fill-rule:nonzero;stroke:none;stroke-width:4.4000001;marker:none;visibility:visible;display:inline;overflow:visible;enable-background:accumulate;font-family:Sans;-inkscape-font-specification:Sans" id="path14255-9-3-1" d="m 511.40625,496.0625 -0.8125,4.34375 25.53774,4.97209 0.84375,-4.3125 z"/><path style="font-size:medium;font-style:normal;font-variant:normal;font-weight:400;font-stretch:normal;text-indent:0;text-align:start;text-decoration:none;line-height:normal;letter-spacing:normal;word-spacing:normal;text-transform:none;direction:ltr;block-progression:tb;writing-mode:lr-tb;text-anchor:start;baseline-shift:baseline;color:#000;fill:#fff;fill-opacity:1;fill-rule:nonzero;stroke:none;stroke-width:4.4000001;marker:none;visibility:visible;display:inline;overflow:visible;enable-background:accumulate;font-family:Sans;-inkscape-font-specification:Sans" id="path14255-7-0-0-3" d="m 527.375,499.15625 2.77928,4.94634 21.18947,4.02241 0.8125,-4.3125 z"/></g></g></a></g></svg>